<svg xmlns="http://www.w3.org/2000/svg" viewBox="11 13 79 79"><defs><mask id="g1f" maskUnits="userSpaceOnUse" x="-10" y="-10" width="120" height="120"><rect x="-10" y="-10" width="120" height="120" fill="white"/><g fill="black"><circle cx="32" cy="55" r="7.2"/><circle cx="50" cy="55" r="7.2"/><path transform="translate(41 66) scale(1.25)" d="M0,-3.6 C2.5,-1.1 4.5,0.9 3,2.9 C2,4.2 0.6,3.7 0,2.7 C-0.6,3.7 -2,4.2 -3,2.9 C-4.5,0.9 -2.5,-1.1 0,-3.6Z"/></g></mask><mask id="g1b" maskUnits="userSpaceOnUse" x="-10" y="-10" width="120" height="120"><rect x="-10" y="-10" width="120" height="120" fill="white"/><g fill="black" stroke="black" stroke-width="10" stroke-linejoin="round"><circle cx="41" cy="58" r="26"/><path d="M24,76 L13,90 L37,82Z"/></g><g fill="black"><circle cx="62" cy="30" r="4.6"/><circle cx="75" cy="33" r="4.6"/></g></mask></defs><g mask="url(#g1b)" fill="#000" fill-opacity="1"><circle cx="62" cy="38" r="23"/><path d="M76,54 L88,68 L66,59Z"/></g><g mask="url(#g1f)" fill="#000"><circle cx="41" cy="58" r="26"/><path d="M24,76 L13,90 L37,82Z"/></g></svg>
